HIERARCHY
ROOT Hips
{
	OFFSET 0.00000 0.00000 0.00000
	CHANNELS 6 Xposition Yposition Zposition Zrotation Yrotation Xrotation 
	JOINT LHipJoint
	{
		OFFSET 0 0 0
		CHANNELS 3 Zrotation Yrotation Xrotation
		JOINT LeftHip
		{
			OFFSET 1.46561 -1.72757 0.83774
			CHANNELS 3 Zrotation Yrotation Xrotation
			JOINT LeftKnee
			{
				OFFSET 2.48915 -6.83890 0.00000
				CHANNELS 3 Zrotation Yrotation Xrotation
				JOINT LeftAnkle
				{
					OFFSET 2.60555 -7.15868 0.00000
					CHANNELS 3 Zrotation Yrotation Xrotation
					JOINT LeftToe
					{
						OFFSET 0.19248 -0.52884 2.26738
						CHANNELS 3 Zrotation Yrotation Xrotation
						End Site
						{
							OFFSET 0.00000 -0.00000 1.17015
						}
					}
				}
			}
		}
	}
	JOINT RHipJoint
	{
		OFFSET 0 0 0
		CHANNELS 3 Zrotation Yrotation Xrotation
		JOINT RightHip
		{
			OFFSET -1.46918 -1.72757 0.83774
			CHANNELS 3 Zrotation Yrotation Xrotation
			JOINT RightKnee
			{
				OFFSET -2.49034 -6.84216 0.00000
				CHANNELS 3 Zrotation Yrotation Xrotation
				JOINT RightAnkle
				{
					OFFSET -2.65971 -7.30750 0.00000
					CHANNELS 3 Zrotation Yrotation Xrotation
					JOINT RightToe
					{
						OFFSET -0.19227 -0.52827 2.30785
						CHANNELS 3 Zrotation Yrotation Xrotation
						End Site
						{
							OFFSET -0.00000 -0.00000 1.18972
						}
					}
				}
			}
		}
	}
	JOINT lowerback
	{
		OFFSET 0 0 0
		CHANNELS 3 Zrotation Yrotation Xrotation
		JOINT Chest
		{
			OFFSET 0.02432 2.19909 -0.28000
			CHANNELS 3 Zrotation Yrotation Xrotation
			JOINT Chest2
			{
				OFFSET 0.03714 2.21816 -0.15261
				CHANNELS 3 Zrotation Yrotation Xrotation
				JOINT lowerneck
				{
					OFFSET 0 0 0
					CHANNELS 3 Zrotation Yrotation Xrotation
					JOINT Neck
					{
						OFFSET -0.01896 1.56165 0.21681
						CHANNELS 3 Zrotation Yrotation Xrotation
						JOINT Head
						{
							OFFSET 0.02744 1.56009 0.06764
							CHANNELS 3 Zrotation Yrotation Xrotation
							End Site
							{
								OFFSET 0.01212 1.60574 0.00298
							}
						}
					}
				}
				JOINT LeftCollar
				{
					OFFSET 0 0 0
					CHANNELS 3 Zrotation Yrotation Xrotation
					JOINT LeftShoulder
					{
						OFFSET 3.05595 1.48048 -0.60794
CHANNELS 3 Zrotation Xrotation Yrotation
						JOINT LeftElbow
						{
OFFSET 0 -5.206070 -0.000000
CHANNELS 3 Zrotation Xrotation Yrotation
							JOINT LeftWrist
							{
OFFSET 0 -3.399610 0.000000
CHANNELS 3 Zrotation Xrotation Yrotation
								JOINT lhand
								{
									OFFSET 0 0 0
CHANNELS 3 Zrotation Xrotation Yrotation
									JOINT LFingers
									{
OFFSET 0 -0.519690 0.000000
CHANNELS 3 Zrotation Xrotation Yrotation
										End Site
										{
OFFSET 0 -0.418990 0.000000
										}
									}
								}
								JOINT LThumb
								{
OFFSET 0 0.000000 0.000000
CHANNELS 3 Zrotation Xrotation Yrotation
									End Site
									{
OFFSET 0 -0.425390 0.425390
									}
								}
							}
						}
					}
				}
				JOINT RightCollar
				{
					OFFSET 0 0 0
					CHANNELS 3 Zrotation Yrotation Xrotation
					JOINT RightShoulder
					{
						OFFSET -2.99052 1.57608 -0.69102
CHANNELS 3 Zrotation Xrotation Yrotation
						JOINT RightElbow
						{
OFFSET 0 -5.322140 0.000000
CHANNELS 3 Zrotation Xrotation Yrotation
							JOINT RightWrist
							{
OFFSET 0 -3.512080 0.000000
CHANNELS 3 Zrotation Xrotation Yrotation
								JOINT rhand
								{
									OFFSET 0 0 0
CHANNELS 3 Zrotation Xrotation Yrotation
									JOINT RFingers
									{
OFFSET 0 -0.586680 0.000000
CHANNELS 3 Zrotation Xrotation Yrotation
										End Site
										{
OFFSET 0 -0.473000 0.000000
										}
									}
								}
								JOINT RThumb
								{
OFFSET 0 0.000000 0.000000
CHANNELS 3 Zrotation Xrotation Yrotation
									End Site
									{
OFFSET 0 -0.480220 0.480220
									}
								}
							}
						}
					}
				}
			}
		}
	}
}
MOTION
Frames: 8
Frame Time: 0.008333333333333333
0.083284 17.245151 4.150184 -2.091296 -2.309074 0.394700 0.000000 0.000000 0.000000 -14.094779 -3.386984 -31.961340 2.695821 10.185018 29.578359 0.389722 1.387499 -12.378636 1.672398 -8.147358 -23.162702 0.000000 0.000000 0.000000 17.964410 7.717780 -34.548730 -3.105716 -10.863841 31.822405 -0.000196 3.763169 5.382262 -0.017840 0.862003 -2.369041 -0.960433 1.265086 7.421976 0.768114 1.621512 4.668171 1.219153 0.780443 0.609119 -0.864491 -0.130643 -8.772453 1.898948 -0.540926 28.655832 0.768664 -0.120010 10.622115 0.000000 0.000000 0.000000 0.623796 11.851467 -16.903862 1.589101 -2.750024 0.038166 17.906863 12.986503 2.154938 0.000000 0.000000 0.000000 -7.125000 0.000000 0.000000 -6.677910 27.695633 -2.826856 0.000000 0.000000 0.000000 -0.050928 7.723981 7.404591 -12.564127 -20.645109 -2.297371 -20.626138 47.425762 24.412486 0.000000 0.000000 0.000000 7.125000 0.000000 0.000000 9.509417 55.599187 -2.489879
0.076735 16.941203 4.376002 -2.087819 -2.338773 -0.583403 0.000000 0.000000 0.000000 -14.122250 -3.288878 -32.215706 3.235960 11.065739 32.503797 0.335167 0.812230 -11.259259 1.678890 -8.162413 -23.208421 0.000000 0.000000 0.000000 18.127828 7.831609 -34.163436 -3.622119 -11.638360 34.466236 0.091315 5.490615 3.252720 -0.000810 0.117769 -0.323547 -0.986281 1.292818 7.846711 0.796766 1.653761 4.521583 1.249027 0.798944 0.221074 -0.831867 -0.164583 -8.857367 1.878636 -0.591684 28.787916 0.751035 -0.141143 10.689409 0.000000 0.000000 0.000000 0.758072 11.030723 -16.531271 1.364832 -2.362480 0.028158 18.432230 13.794870 2.117125 0.000000 0.000000 0.000000 -7.125000 0.000000 0.000000 -6.276400 27.730869 -2.649691 0.000000 0.000000 0.000000 -0.142112 7.187414 6.204546 -12.053618 -19.884786 -2.120639 -20.944904 49.143520 24.540776 0.000000 0.000000 0.000000 7.125000 0.000000 0.000000 9.232199 55.795136 -2.460366
0.069250 16.662141 4.578252 -2.024332 -2.260614 -1.449529 0.000000 0.000000 0.000000 -14.072732 -3.512224 -32.907355 3.935778 12.070606 35.987351 0.277836 0.275803 -10.057004 1.609236 -7.999538 -22.712657 0.000000 0.000000 0.000000 18.143210 8.100846 -34.194330 -4.278613 -12.519356 37.599179 0.122094 6.476933 0.444313 -0.017242 -0.818091 2.248472 -1.084841 1.295966 8.313200 0.823881 1.647838 4.333730 1.319588 0.798093 -0.232989 -0.810268 -0.199979 -8.944765 1.844474 -0.636718 28.805029 0.729968 -0.162615 10.713833 0.000000 0.000000 0.000000 0.885304 9.971971 -16.183737 1.166697 -2.019804 0.020644 19.260855 14.399946 2.153839 0.000000 0.000000 0.000000 -7.125000 0.000000 0.000000 -5.637922 27.684645 -2.383709 0.000000 0.000000 0.000000 -0.263755 6.451660 4.822206 -11.564233 -19.147651 -1.957152 -21.372950 51.156891 24.747743 0.000000 0.000000 0.000000 7.125000 0.000000 0.000000 8.872878 56.095122 -2.428134
0.058241 16.399240 4.758422 -1.971368 -2.105483 -2.092694 0.000000 0.000000 0.000000 -13.814892 -4.154163 -34.123064 4.833117 13.186835 40.083269 0.240702 -0.000624 -9.265217 1.422822 -7.541779 -21.331408 0.000000 0.000000 0.000000 18.005979 8.733594 -34.795764 -5.110971 -13.502617 41.289703 0.064576 6.539717 -2.595117 -0.088358 -1.893056 5.210704 -1.221743 1.291234 8.700123 0.875725 1.628852 4.124620 1.440144 0.790471 -0.666235 -0.777781 -0.245163 -9.059357 1.760772 -0.681637 28.687353 0.688299 -0.188691 10.692704 0.000000 0.000000 0.000000 0.982608 8.574143 -15.874135 0.996970 -1.726236 0.015058 20.316342 14.851551 2.179247 0.000000 0.000000 0.000000 -7.125000 0.000000 0.000000 -4.825435 27.646166 -2.042191 0.000000 0.000000 0.000000 -0.417828 5.424454 3.231971 -11.094633 -18.432857 -1.805998 -21.883241 53.504903 25.040534 0.000000 0.000000 0.000000 7.125000 0.000000 0.000000 8.461242 56.502432 -2.397828
0.041551 16.140619 4.921851 -1.942213 -1.924410 -2.498766 0.000000 0.000000 0.000000 -13.351320 -5.082733 -35.804102 5.925194 14.346189 44.662916 0.236268 0.000150 -9.181861 1.134663 -6.759464 -19.006968 0.000000 0.000000 0.000000 17.722389 9.749094 -35.978816 -6.132441 -14.547794 45.496335 -0.055059 5.947558 -5.520688 -0.196521 -2.839431 7.832891 -1.410038 1.303685 8.957327 0.957244 1.629437 3.930004 1.621859 0.792216 -1.016126 -0.755403 -0.309580 -9.223189 1.659543 -0.744995 28.446920 0.639332 -0.226425 10.635489 0.000000 0.000000 0.000000 1.053775 6.809717 -15.617714 0.875521 -1.516045 0.011647 21.524431 15.196957 2.181211 0.000000 0.000000 0.000000 -7.125000 0.000000 0.000000 -3.896126 27.628772 -1.648559 0.000000 0.000000 0.000000 -0.601096 4.073765 1.483973 -10.663109 -17.769809 -1.671883 -22.421954 56.133107 25.407413 0.000000 0.000000 0.000000 7.125000 0.000000 0.000000 8.048258 56.994624 -2.375435
0.020441 15.881429 5.077251 -1.941740 -1.756727 -2.761562 0.000000 0.000000 0.000000 -12.751356 -6.092395 -37.683155 7.154395 15.449692 49.436717 0.269999 0.224062 -9.896195 0.837430 -5.827588 -16.287964 0.000000 0.000000 0.000000 17.349849 10.954801 -37.522917 -7.297002 -15.567472 49.972280 -0.197301 5.110760 -8.121975 -0.274905 -3.368493 9.306810 -1.628097 1.343980 9.111119 1.059807 1.665168 3.790595 1.841563 0.810713 -1.254916 -0.742381 -0.397135 -9.409055 1.557869 -0.837664 28.098683 0.587987 -0.278791 10.542988 0.000000 0.000000 0.000000 1.120982 4.736577 -15.413347 0.826299 -1.430758 0.010341 22.865650 15.427534 2.274010 0.000000 0.000000 0.000000 -7.125000 0.000000 0.000000 -2.862459 27.508495 -1.217817 0.000000 0.000000 0.000000 -0.806807 2.453417 -0.260720 -10.303277 -17.212368 -1.563657 -22.903377 58.827569 25.809863 0.000000 0.000000 0.000000 7.125000 0.000000 0.000000 7.709336 57.514191 -2.371357
-0.002924 15.629598 5.231173 -1.998243 -1.637710 -3.033189 0.000000 0.000000 0.000000 -12.098216 -6.946559 -39.372701 8.407629 16.400694 54.001320 0.355313 0.621544 -11.488415 0.629278 -5.068212 -14.104950 0.000000 0.000000 0.000000 17.021599 12.092734 -39.041045 -8.505531 -16.469306 54.348625 -0.340374 4.400128 -10.370888 -0.281562 -3.412533 9.429417 -1.816809 1.411355 9.252448 1.179780 1.739264 3.738583 2.060291 0.847408 -1.398343 -0.748602 -0.504070 -9.598158 1.481742 -0.960466 27.709015 0.545665 -0.344248 10.436757 0.000000 0.000000 0.000000 1.208587 2.469874 -15.239295 0.868477 -1.503833 0.011387 24.364985 15.452553 2.674001 0.000000 0.000000 0.000000 -7.125000 0.000000 0.000000 -1.709324 27.042705 -0.743769 0.000000 0.000000 0.000000 -1.032312 0.670659 -1.731605 -10.048287 -16.814852 -1.488993 -23.281710 61.248908 26.160552 0.000000 0.000000 0.000000 7.125000 0.000000 0.000000 7.456933 57.960041 -2.373390
-0.024496 15.407432 5.384827 -2.102976 -1.560839 -3.478540 0.000000 0.000000 0.000000 -11.527019 -7.501562 -40.472214 9.552616 17.142453 57.970606 0.476087 0.942312 -13.389931 0.493437 -4.498519 -12.484604 0.000000 0.000000 0.000000 16.865990 12.895715 -40.094470 -9.623398 -17.185020 58.211092 -0.489193 3.959588 -12.435537 -0.229126 -3.077238 8.494148 -1.929190 1.491923 9.503421 1.297682 1.835060 3.784934 2.230442 0.894406 -1.499934 -0.764267 -0.624271 -9.753368 1.435945 -1.109432 27.368207 0.513239 -0.419357 10.343137 0.000000 0.000000 0.000000 1.348056 0.151190 -15.075156 1.002685 -1.736075 0.015229 25.837095 15.232775 3.421440 0.000000 0.000000 0.000000 -7.125000 0.000000 0.000000 -0.593418 26.177361 -0.267137 0.000000 0.000000 0.000000 -1.268534 -1.127345 -2.610220 -9.927110 -16.625454 -1.454019 -23.542085 63.015725 26.393504 0.000000 0.000000 0.000000 7.125000 0.000000 0.000000 7.278640 58.259343 -2.368852
